<svg width="128" height="131" viewBox="0 0 128 131" fill="none" xmlns="http://www.w3.org/2000/svg">
<g clip-path="url(#clip0_500_374)">
<path d="M127.939 66.7259C127.939 61.3589 127.504 57.4424 126.561 53.3809H65.2754V77.6049H101.249C100.524 83.6249 96.6074 92.6909 87.9039 98.7829L87.7819 99.5939L107.159 114.605L108.502 114.739C120.831 103.352 127.939 86.5984 127.939 66.7259Z" fill="#4285F4"/>
<path d="M65.2754 130.55C82.8994 130.55 97.6949 124.747 108.502 114.739L87.9039 98.7821C82.3919 102.626 74.9939 105.31 65.2754 105.31C48.0139 105.31 33.3634 93.9231 28.1409 78.1846L27.3754 78.2496L7.22639 93.8431L6.96289 94.5756C17.6969 115.899 39.7454 130.55 65.2754 130.55Z" fill="#34A853"/>
<path d="M28.1405 78.1852C26.7625 74.1237 25.965 69.7718 25.965 65.2753C25.965 60.7783 26.7625 56.4268 28.068 52.3653L28.0315 51.5003L7.63 35.6562L6.9625 35.9738C2.5385 44.8223 0 54.7588 0 65.2753C0 75.7918 2.5385 85.7277 6.9625 94.5762L28.1405 78.1852Z" fill="#FBBC05"/>
<path d="M65.2754 25.2395C77.5324 25.2395 85.8004 30.534 90.5149 34.9585L108.937 16.9715C97.6229 6.455 82.8994 0 65.2754 0C39.7454 0 17.6969 14.6505 6.96289 35.9735L28.0684 52.365C33.3634 36.6265 48.0139 25.2395 65.2754 25.2395Z" fill="#EB4335"/>
</g>
<defs>
<clipPath id="clip0_500_374">
<rect width="128" height="131" fill="white"/>
</clipPath>
</defs>
</svg>
