<svg width="24" height="24" viewBox="0 0 24 24" fill="none" xmlns="http://www.w3.org/2000/svg">
<path d="M12.0007 3H10.4207L12.5207 0H10.0807L7.28073 4L10.0807 8H12.5207L10.4207 5H12.0007C13.844 4.99979 15.6308 5.6361 17.059 6.80136C18.4872 7.96661 19.4692 9.58932 19.839 11.3951C20.2088 13.2009 19.9437 15.079 19.0884 16.7118C18.2332 18.3447 16.8403 19.6321 15.1453 20.3564C13.4503 21.0808 11.5572 21.1976 9.78606 20.6871C8.01489 20.1766 6.47434 19.0701 5.42488 17.5548C4.37542 16.0394 3.88143 14.2082 4.02645 12.3706C4.17146 10.5331 4.94657 8.80197 6.22073 7.47L5.01073 5.85C3.35305 7.47087 2.31008 9.61736 2.06021 11.9223C1.81035 14.2272 2.36913 16.5473 3.64096 18.4858C4.9128 20.4242 6.81865 21.8605 9.0325 22.5489C11.2464 23.2374 13.6306 23.1352 15.7775 22.2599C17.9243 21.3846 19.7003 19.7905 20.8016 17.7504C21.903 15.7102 22.2612 13.3508 21.8151 11.0757C21.3689 8.80062 20.1462 6.75122 18.3559 5.27811C16.5656 3.805 14.3192 2.99971 12.0007 3Z" fill="currentColor"/>
<path d="M10.0602 16.2491V9.86914H9.50023C8.74023 10.2391 8.07023 10.5591 7.24023 10.7591L7.44023 11.7991C7.99023 11.6791 8.37023 11.5391 8.75023 11.3091V16.2491H10.0502H10.0602ZM13.2902 15.3291C12.8002 15.3291 12.3202 15.2491 11.7802 15.1091L11.9002 16.1491C12.4202 16.2691 12.8102 16.3291 13.3202 16.3291C15.1402 16.3291 16.0502 15.5191 16.0502 14.2091C16.0502 12.9791 15.3002 12.4191 13.0802 12.2891L13.2002 10.9091H15.7402L15.9302 9.86914H12.2302L11.9202 13.2091C14.1602 13.2491 14.7202 13.5191 14.7202 14.2691C14.7202 15.0591 14.2202 15.3291 13.2902 15.3291Z" fill="#2B2B2B"/>
</svg>
