<svg width="24" height="24" viewBox="0 0 24 24" fill="none" xmlns="http://www.w3.org/2000/svg">
<path d="M18.9893 5.85L17.7793 7.47C19.0535 8.80197 19.8286 10.5331 19.9736 12.3706C20.1186 14.2082 19.6246 16.0394 18.5752 17.5548C17.5257 19.0701 15.9851 20.1766 14.214 20.6871C12.4428 21.1976 10.5497 21.0808 8.85471 20.3564C7.15972 19.6321 5.76686 18.3447 4.91162 16.7118C4.05638 15.079 3.79123 13.2009 4.16101 11.3951C4.53079 9.58932 5.51281 7.96661 6.94103 6.80136C8.36925 5.6361 10.156 4.99979 11.9993 5H13.5793L11.4793 8H13.9193L16.7193 4L13.9193 0H11.4793L13.5793 3H11.9993C9.68088 2.99971 7.43439 3.805 5.64413 5.27811C3.85387 6.75122 2.63108 8.80062 2.18495 11.0757C1.73882 13.3508 2.09707 15.7102 3.1984 17.7504C4.29974 19.7905 6.07573 21.3846 8.22257 22.2599C10.3694 23.1352 12.7537 23.2374 14.9675 22.5489C17.1814 21.8605 19.0872 20.4242 20.3591 18.4858C21.6309 16.5473 22.1897 14.2272 21.9398 11.9223C21.69 9.61736 20.647 7.47087 18.9893 5.85Z" fill="currentColor"/>
<path d="M10.0602 16.2491V9.86914H9.50023C8.74023 10.2391 8.07023 10.5591 7.24023 10.7591L7.44023 11.7991C7.99023 11.6791 8.37023 11.5391 8.75023 11.3091V16.2491H10.0502H10.0602ZM13.2902 15.3291C12.8002 15.3291 12.3202 15.2491 11.7802 15.1091L11.9002 16.1491C12.4202 16.2691 12.8102 16.3291 13.3202 16.3291C15.1402 16.3291 16.0502 15.5191 16.0502 14.2091C16.0502 12.9791 15.3002 12.4191 13.0802 12.2891L13.2002 10.9091H15.7402L15.9302 9.86914H12.2302L11.9202 13.2091C14.1602 13.2491 14.7202 13.5191 14.7202 14.2691C14.7202 15.0591 14.2202 15.3291 13.2902 15.3291Z" fill="#2B2B2B"/>
</svg>
